<mxfile host="app.diagrams.net" modified="2021-02-07T18:45:52.323Z" agent="5.0 (Windows)" etag="Ny_iegbHmUrs2SfQA2M3" version="14.2.9" type="github">
  <diagram id="d93nBqRv_8_YlUlZ4h58" name="Page-1">
    <mxGraphModel dx="1372" dy="834" grid="1" gridSize="10" guides="1" tooltips="1" connect="1" arrows="1" fold="1" page="1" pageScale="1" pageWidth="850" pageHeight="1100" math="0" shadow="0">
      <root>
        <mxCell id="0" />
        <mxCell id="1" parent="0" />
        <mxCell id="zZWYWJ6DMOHtchG7m6ry-4" style="edgeStyle=orthogonalEdgeStyle;rounded=0;orthogonalLoop=1;jettySize=auto;html=1;entryX=0.5;entryY=0;entryDx=0;entryDy=0;" edge="1" parent="1" source="zZWYWJ6DMOHtchG7m6ry-1" target="zZWYWJ6DMOHtchG7m6ry-2">
          <mxGeometry relative="1" as="geometry" />
        </mxCell>
        <mxCell id="zZWYWJ6DMOHtchG7m6ry-1" value="Payment is confirmed" style="rounded=0;whiteSpace=wrap;html=1;" vertex="1" parent="1">
          <mxGeometry x="80" y="40" width="240" height="40" as="geometry" />
        </mxCell>
        <mxCell id="zZWYWJ6DMOHtchG7m6ry-6" style="edgeStyle=orthogonalEdgeStyle;rounded=0;orthogonalLoop=1;jettySize=auto;html=1;entryX=0.5;entryY=0;entryDx=0;entryDy=0;" edge="1" parent="1" source="zZWYWJ6DMOHtchG7m6ry-2" target="zZWYWJ6DMOHtchG7m6ry-5">
          <mxGeometry relative="1" as="geometry" />
        </mxCell>
        <mxCell id="zZWYWJ6DMOHtchG7m6ry-2" value="The user&#39;s Order pushed to history" style="rounded=0;whiteSpace=wrap;html=1;" vertex="1" parent="1">
          <mxGeometry x="80" y="120" width="240" height="40" as="geometry" />
        </mxCell>
        <mxCell id="zZWYWJ6DMOHtchG7m6ry-8" style="edgeStyle=orthogonalEdgeStyle;rounded=0;orthogonalLoop=1;jettySize=auto;html=1;entryX=0;entryY=0.5;entryDx=0;entryDy=0;" edge="1" parent="1" source="zZWYWJ6DMOHtchG7m6ry-5" target="zZWYWJ6DMOHtchG7m6ry-7">
          <mxGeometry relative="1" as="geometry" />
        </mxCell>
        <mxCell id="zZWYWJ6DMOHtchG7m6ry-5" value="Redirect to Order Tracking page" style="rounded=0;whiteSpace=wrap;html=1;" vertex="1" parent="1">
          <mxGeometry x="80" y="200" width="240" height="40" as="geometry" />
        </mxCell>
        <mxCell id="zZWYWJ6DMOHtchG7m6ry-10" style="edgeStyle=orthogonalEdgeStyle;rounded=0;orthogonalLoop=1;jettySize=auto;html=1;entryX=0.5;entryY=0;entryDx=0;entryDy=0;" edge="1" parent="1" source="zZWYWJ6DMOHtchG7m6ry-7" target="zZWYWJ6DMOHtchG7m6ry-9">
          <mxGeometry relative="1" as="geometry" />
        </mxCell>
        <mxCell id="zZWYWJ6DMOHtchG7m6ry-7" value="10min Timer Begins (Order Status: 0)" style="rounded=0;whiteSpace=wrap;html=1;" vertex="1" parent="1">
          <mxGeometry x="400" y="200" width="240" height="40" as="geometry" />
        </mxCell>
        <mxCell id="zZWYWJ6DMOHtchG7m6ry-12" style="edgeStyle=orthogonalEdgeStyle;rounded=0;orthogonalLoop=1;jettySize=auto;html=1;entryX=1;entryY=0.5;entryDx=0;entryDy=0;" edge="1" parent="1" source="zZWYWJ6DMOHtchG7m6ry-9" target="zZWYWJ6DMOHtchG7m6ry-11">
          <mxGeometry relative="1" as="geometry" />
        </mxCell>
        <mxCell id="zZWYWJ6DMOHtchG7m6ry-9" value="Update Order Tracking Progress Bar" style="rounded=0;whiteSpace=wrap;html=1;" vertex="1" parent="1">
          <mxGeometry x="400" y="280" width="240" height="40" as="geometry" />
        </mxCell>
        <mxCell id="zZWYWJ6DMOHtchG7m6ry-14" style="edgeStyle=orthogonalEdgeStyle;rounded=0;orthogonalLoop=1;jettySize=auto;html=1;entryX=0.5;entryY=0;entryDx=0;entryDy=0;" edge="1" parent="1" source="zZWYWJ6DMOHtchG7m6ry-11" target="zZWYWJ6DMOHtchG7m6ry-13">
          <mxGeometry relative="1" as="geometry" />
        </mxCell>
        <mxCell id="zZWYWJ6DMOHtchG7m6ry-11" value="(Order Status: 1)" style="rounded=0;whiteSpace=wrap;html=1;" vertex="1" parent="1">
          <mxGeometry x="80" y="280" width="240" height="40" as="geometry" />
        </mxCell>
        <mxCell id="zZWYWJ6DMOHtchG7m6ry-16" style="edgeStyle=orthogonalEdgeStyle;rounded=0;orthogonalLoop=1;jettySize=auto;html=1;entryX=0;entryY=0.5;entryDx=0;entryDy=0;" edge="1" parent="1" source="zZWYWJ6DMOHtchG7m6ry-13" target="zZWYWJ6DMOHtchG7m6ry-15">
          <mxGeometry relative="1" as="geometry" />
        </mxCell>
        <mxCell id="zZWYWJ6DMOHtchG7m6ry-13" value="Start another timer with yorkdale &amp;gt; user" style="rounded=0;whiteSpace=wrap;html=1;" vertex="1" parent="1">
          <mxGeometry x="80" y="360" width="240" height="40" as="geometry" />
        </mxCell>
        <mxCell id="zZWYWJ6DMOHtchG7m6ry-18" style="edgeStyle=orthogonalEdgeStyle;rounded=0;orthogonalLoop=1;jettySize=auto;html=1;entryX=0.5;entryY=0;entryDx=0;entryDy=0;" edge="1" parent="1" source="zZWYWJ6DMOHtchG7m6ry-15" target="zZWYWJ6DMOHtchG7m6ry-17">
          <mxGeometry relative="1" as="geometry" />
        </mxCell>
        <mxCell id="zZWYWJ6DMOHtchG7m6ry-15" value="(Order Status: 2)" style="rounded=0;whiteSpace=wrap;html=1;" vertex="1" parent="1">
          <mxGeometry x="400" y="360" width="240" height="40" as="geometry" />
        </mxCell>
        <mxCell id="zZWYWJ6DMOHtchG7m6ry-20" style="edgeStyle=orthogonalEdgeStyle;rounded=0;orthogonalLoop=1;jettySize=auto;html=1;entryX=1;entryY=0.5;entryDx=0;entryDy=0;" edge="1" parent="1" source="zZWYWJ6DMOHtchG7m6ry-17" target="zZWYWJ6DMOHtchG7m6ry-19">
          <mxGeometry relative="1" as="geometry" />
        </mxCell>
        <mxCell id="zZWYWJ6DMOHtchG7m6ry-17" value="Food arrives at user&#39;s house" style="rounded=0;whiteSpace=wrap;html=1;" vertex="1" parent="1">
          <mxGeometry x="400" y="440" width="240" height="40" as="geometry" />
        </mxCell>
        <mxCell id="zZWYWJ6DMOHtchG7m6ry-22" style="edgeStyle=orthogonalEdgeStyle;rounded=0;orthogonalLoop=1;jettySize=auto;html=1;entryX=0.5;entryY=0;entryDx=0;entryDy=0;" edge="1" parent="1" source="zZWYWJ6DMOHtchG7m6ry-19" target="zZWYWJ6DMOHtchG7m6ry-21">
          <mxGeometry relative="1" as="geometry" />
        </mxCell>
        <mxCell id="zZWYWJ6DMOHtchG7m6ry-19" value="(Order Status: 3)" style="rounded=0;whiteSpace=wrap;html=1;" vertex="1" parent="1">
          <mxGeometry x="80" y="440" width="240" height="40" as="geometry" />
        </mxCell>
        <mxCell id="zZWYWJ6DMOHtchG7m6ry-21" value="Progress bar is full (&quot;Order complete, thx!&quot;)" style="rounded=0;whiteSpace=wrap;html=1;" vertex="1" parent="1">
          <mxGeometry x="80" y="520" width="240" height="40" as="geometry" />
        </mxCell>
      </root>
    </mxGraphModel>
  </diagram>
</mxfile>
